<svg xmlns="http://www.w3.org/2000/svg" viewBox="0 0 400 300" data-imageid="coworking-a" imageName="Focused Working" class="illustrations_image" style="width: 274px;"><g id="_91_focused_working_outline" data-name="#91_focused_working_outline"><rect x="150.62" y="102.03" width="109.35" height="82.66" rx="6.72" fill="#68e1fd" class="target-color"/><path d="M253.25,185.69H157.34a7.73,7.73,0,0,1-7.72-7.72V108.75a7.72,7.72,0,0,1,7.72-7.72h95.91a7.73,7.73,0,0,1,7.72,7.72V178A7.74,7.74,0,0,1,253.25,185.69ZM157.34,103a5.72,5.72,0,0,0-5.72,5.72V178a5.73,5.73,0,0,0,5.72,5.72h95.91A5.73,5.73,0,0,0,259,178V108.75a5.73,5.73,0,0,0-5.72-5.72Z" fill="#093f68"/><polygon points="224.67 207.63 185.91 207.63 189.96 184.69 220.63 184.69 224.67 207.63" fill="#093f68"/><path d="M224.67,208.63H185.91a1,1,0,0,1-.76-.36,1,1,0,0,1-.22-.82l4-22.94a1,1,0,0,1,1-.82h30.67a1,1,0,0,1,1,.82l4,22.94a1,1,0,0,1-.22.82A1,1,0,0,1,224.67,208.63Zm-37.57-2h36.38l-3.69-20.94h-29Z" fill="#093f68"/><rect x="158.07" y="108.92" width="94.44" height="61.35" fill="#fff"/><path d="M252.51,171.26H158.07a1,1,0,0,1-1-1V108.92a1,1,0,0,1,1-1h94.44a1,1,0,0,1,1,1v61.34A1,1,0,0,1,252.51,171.26Zm-93.44-2h92.44V109.92H159.07Z" fill="#093f68"/><path d="M205.29,181.42a3.71,3.71,0,1,1,3.71-3.71A3.72,3.72,0,0,1,205.29,181.42Zm0-5.42a1.71,1.71,0,1,0,1.71,1.71A1.72,1.72,0,0,0,205.29,176Z" fill="#093f68"/><path d="M220.2,163.11a1,1,0,0,1-.66-1.76l28.87-24.79a1,1,0,0,1,1.31,1.52l-28.87,24.79A1,1,0,0,1,220.2,163.11Z" fill="#dfeaef"/><path d="M175.58,165a1,1,0,0,1-.75-.34,1,1,0,0,1,.09-1.41l40.54-35.64a1,1,0,1,1,1.33,1.5L176.24,164.7A1,1,0,0,1,175.58,165Z" fill="#dfeaef"/><path d="M163.86,150.71a1,1,0,0,1-.65-1.76l14.86-12.4a1,1,0,0,1,1.28,1.54L164.5,150.48A1,1,0,0,1,163.86,150.71Z" fill="#dfeaef"/><rect x="103.08" y="208.17" width="193.84" height="7.86" rx="3.23" fill="#725858"/><path d="M293.69,217H106.31a4.24,4.24,0,0,1-4.23-4.23v-1.4a4.23,4.23,0,0,1,4.23-4.23H293.69a4.23,4.23,0,0,1,4.23,4.23v1.4A4.24,4.24,0,0,1,293.69,217Zm-187.38-7.86a2.23,2.23,0,0,0-2.23,2.23v1.4a2.23,2.23,0,0,0,2.23,2.23H293.69a2.23,2.23,0,0,0,2.23-2.23v-1.4a2.23,2.23,0,0,0-2.23-2.23Z" fill="#093f68"/><path d="M239.82,118.79a1,1,0,0,1-1-1v-.37a32.44,32.44,0,1,0-64.88,0v.37a1,1,0,1,1-2,0v-.37a34.44,34.44,0,1,1,68.88,0v.37A1,1,0,0,1,239.82,118.79Z" fill="#093f68"/><path d="M172,117.79h6.72a0,0,0,0,1,0,0v28.28a0,0,0,0,1,0,0H172a4.83,4.83,0,0,1-4.83-4.83V122.62A4.83,4.83,0,0,1,172,117.79Z" fill="#68e1fd" class="target-color"/><path d="M178.71,147.07H172a5.84,5.84,0,0,1-5.83-5.83V122.62a5.84,5.84,0,0,1,5.83-5.83h6.72a1,1,0,0,1,1,1v28.28A1,1,0,0,1,178.71,147.07ZM172,118.79a3.84,3.84,0,0,0-3.83,3.83v18.62a3.83,3.83,0,0,0,3.83,3.83h5.72V118.79Z" fill="#093f68"/><path d="M237.93,117.79h6.72a0,0,0,0,1,0,0v28.28a0,0,0,0,1,0,0h-6.72a4.83,4.83,0,0,1-4.83-4.83V122.62a4.83,4.83,0,0,1,4.83-4.83Z" transform="translate(477.75 263.87) rotate(-180)" fill="#68e1fd" class="target-color"/><path d="M239.82,147.07H233.1a1,1,0,0,1-1-1V117.79a1,1,0,0,1,1-1h6.72a5.84,5.84,0,0,1,5.83,5.83v18.62A5.84,5.84,0,0,1,239.82,147.07Zm-5.72-2h5.72a3.83,3.83,0,0,0,3.83-3.83V122.62a3.84,3.84,0,0,0-3.83-3.83H234.1Z" fill="#093f68"/><path d="M191.64,109.48c-7.56,11.69-12.71,5.07-14.26,2.77v24.92c0,12.52,10.66,22.78,24.23,23.84v5.11a4.55,4.55,0,0,0,9.06,0v-4.8c16.1-.54,24-13,24-24.15L230.47,115S219.92,122.4,191.64,109.48Z" fill="#ffc9b0"/><path d="M206.14,171.21a5.33,5.33,0,0,1-5.53-5.09v-4.2c-13.66-1.49-24.23-12.2-24.23-24.75V112.25a1,1,0,0,1,1.83-.56c1.57,2.33,3.25,3.52,5,3.52h0c2.31,0,4.92-2.19,7.56-6.27a1,1,0,0,1,1.25-.37c27.26,12.46,37.75,5.68,37.86,5.61a1,1,0,0,1,1-.1,1,1,0,0,1,.6.73L235.61,137a.58.58,0,0,1,0,.19c0,11.84-8.22,24.11-24,25.11v3.84A5.33,5.33,0,0,1,206.14,171.21ZM178.38,115v22.14c0,11.79,10.24,21.83,23.31,22.84a1,1,0,0,1,.92,1v5.11a3.56,3.56,0,0,0,7.06,0v-4.8a1,1,0,0,1,1-1c15.05-.51,23-12,23-23.07l-3.89-20.75c-3.61,1.57-14.93,4.48-37.74-5.76-2.91,4.25-5.84,6.43-8.74,6.46A6.81,6.81,0,0,1,178.38,115Z" fill="#093f68"/><path d="M213.18,164.41H198.83c-14.43,0-27.09,17-34.15,32.6a7.8,7.8,0,0,0,3.78,10.62c3,1.22,4,1.26,15.94-9.54v9.54h43.21v-9.31c11.82,10.51,17,11.23,19,4C248.36,196,229.7,164.41,213.18,164.41Z" fill="#68e1fd" class="target-color"/><path d="M170.56,209.16a6.4,6.4,0,0,1-2.48-.61,8.78,8.78,0,0,1-4.31-12c7.27-16,20.31-33.19,35.06-33.19h14.35c9.94,0,19.31,10.34,24,16.51,6.85,9,11.42,19,10.39,22.67-.82,3-2.18,4.71-4.14,5.29-3.22,1-7.7-1.26-14.83-7.35v7.1a1,1,0,0,1-1,1H184.4a1,1,0,0,1-1-1v-7.3C175.79,207.15,172.94,209.16,170.56,209.16Zm28.27-43.75c-13.8,0-26.22,16.53-33.24,32a6.79,6.79,0,0,0,3.25,9.28c2.4,1,3.12,1.29,14.88-9.36a1,1,0,0,1,1.68.75v8.54h41.21v-8.3a1,1,0,0,1,1.67-.75c7.21,6.41,12,9.16,14.59,8.39,1.25-.37,2.16-1.65,2.78-3.91.74-2.68-3.21-11.93-10.06-20.93-7.61-10-15.78-15.72-22.41-15.72Z" fill="#093f68"/><path d="M234.48,139.53c-3.48,9.55-11.37,15.26-22.73,15.7-17.46.69-32.1-2.69-34.63-20.43-1.45-10.17-3.44-18.69.95-28.56,1-2.25,2.34-4.52,4.53-5.65s5.39-.57,6.36,1.7c-1.26-2.93,6.37-7.33,8.21-8,4.06-1.55,8.72-1.64,13-1.58,9.47.14,20.33,2.45,23.49,12.53a66.27,66.27,0,0,1,2.45,27.42A32.86,32.86,0,0,1,234.48,139.53Z" fill="#725858"/><path d="M207.54,156.32c-14,0-28.82-3.23-31.41-21.38-.15-1.07-.31-2.13-.47-3.17-1.37-9-2.54-16.84,1.49-25.94,1-2.15,2.39-4.79,5-6.13a6.47,6.47,0,0,1,5-.32,5.39,5.39,0,0,1,1.15.58c1.58-3.09,7.21-6.12,8.57-6.64,4.28-1.63,9.15-1.7,13.38-1.64,13.52.19,21.74,4.64,24.44,13.23a67.09,67.09,0,0,1,2.48,27.85,33.16,33.16,0,0,1-1.7,7.11h0c-3.68,10.1-12.07,15.91-23.63,16.36C210.39,156.29,209,156.32,207.54,156.32ZM185,101a4.26,4.26,0,0,0-1.94.45c-2.05,1-3.26,3.31-4.08,5.17-3.8,8.56-2.66,16.09-1.34,24.82.15,1.05.32,2.11.47,3.19,2,14.37,12.41,20.4,33.6,19.58,10.7-.42,18.45-5.77,21.83-15.05h0a31.79,31.79,0,0,0,1.6-6.69,65,65,0,0,0-2.41-27c-2.41-7.67-10-11.65-22.56-11.83-4-.06-8.69,0-12.64,1.51-1.51.58-6.61,3.57-7.57,5.85a1,1,0,0,0-.08.84h0a1,1,0,0,1-1.83.79,2.72,2.72,0,0,0-1.63-1.42A4.19,4.19,0,0,0,185,101Zm49.48,38.5h0Z" fill="#093f68"/><path d="M184.4,203.09a1,1,0,0,1-1-1V183.93a1,1,0,0,1,2,0v18.16A1,1,0,0,1,184.4,203.09Z" fill="#093f68"/><path d="M227.61,203.33a1,1,0,0,1-1-1V185.24a1,1,0,0,1,2,0v17.09A1,1,0,0,1,227.61,203.33Z" fill="#093f68"/><path d="M188.91,180.28h32.76c4.4,0,8,3.08,8.11,6.93l.85,28.82H180l.86-28.82C180.92,183.36,184.52,180.28,188.91,180.28Z" fill="#ffbc0e"/><path d="M230.63,217H180a1,1,0,0,1-.72-.31A1,1,0,0,1,179,216l.86-28.82c.13-4.43,4.13-7.9,9.1-7.9h32.76c5,0,9,3.47,9.1,7.9l.86,28.82a1,1,0,0,1-.28.72A1,1,0,0,1,230.63,217ZM181,215H229.6l-.82-27.79c-.1-3.28-3.29-6-7.11-6H188.91c-3.82,0-7,2.68-7.1,6Z" fill="#093f68"/><path d="M110.05,207.63c0-5.23,5.25-9.46,11.72-9.46s11.72,4.23,11.72,9.46Z" fill="#fff"/><path d="M133.49,208.63H110.05a1,1,0,0,1-1-1c0-5.77,5.71-10.46,12.72-10.46s12.72,4.69,12.72,10.46A1,1,0,0,1,133.49,208.63Zm-22.36-2h21.28c-.62-4.2-5.16-7.46-10.64-7.46S111.75,202.43,111.13,206.63Z" fill="#093f68"/><path d="M121.77,199.17a1,1,0,0,1-.94-.66l-14.62-40.42a1,1,0,0,1,.06-.83l17.06-30.69a1,1,0,0,1,1.75,1l-16.84,30.3,14.47,40a1,1,0,0,1-.6,1.28A1,1,0,0,1,121.77,199.17Z" fill="#093f68"/><circle cx="138.97" cy="134.54" r="4.62" fill="#fff"/><path d="M139,140.16a5.61,5.61,0,0,1-.88-11.16,5.63,5.63,0,0,1,6.44,4.65h0a5.62,5.62,0,0,1-4.66,6.44A5.46,5.46,0,0,1,139,140.16Zm0-9.24a3.92,3.92,0,0,0-.59.05,3.6,3.6,0,0,0-3,4.15,3.58,3.58,0,0,0,1.45,2.36,3.61,3.61,0,0,0,5.05-.82,3.58,3.58,0,0,0,.64-2.69h0a3.62,3.62,0,0,0-3.56-3.05Z" fill="#093f68"/><rect x="122.8" y="123.41" width="5.5" height="6.85" transform="translate(-46.97 172.55) rotate(-60.13)" fill="#fff"/><path d="M127.15,131.93a1.13,1.13,0,0,1-.5-.13l-5.94-3.42a1,1,0,0,1-.37-1.36l2.74-4.77a1,1,0,0,1,.61-.47,1,1,0,0,1,.76.1l5.94,3.41a1,1,0,0,1,.37,1.37L128,131.43a1,1,0,0,1-.61.46A.75.75,0,0,1,127.15,131.93Zm-4.57-4.78,4.2,2.41,1.74-3-4.2-2.42Z" fill="#093f68"/><path d="M145,126.17l-4.4-2.52a10.26,10.26,0,0,0-14,3.78h0a10.26,10.26,0,0,0,3.79,14l4.4,2.53Z" fill="#fff"/><path d="M134.77,145a1,1,0,0,1-.5-.14l-4.4-2.52a11.25,11.25,0,0,1,11.21-19.52l4.4,2.53a1,1,0,0,1,.37,1.36l-10.21,17.78A1,1,0,0,1,134.77,145Zm.72-21.68a9.25,9.25,0,0,0-4.62,17.28l3.53,2,9.22-16-3.54-2A9.23,9.23,0,0,0,135.49,123.28Z" fill="#093f68"/><path d="M146.7,190.93h5.14a5.2,5.2,0,0,1,5.2,5.2V208a0,0,0,0,1,0,0H141.5a0,0,0,0,1,0,0V196.12a5.2,5.2,0,0,1,5.2-5.2Z" transform="translate(298.54 398.97) rotate(-180)" fill="#70cc40"/><path d="M151.84,209.05H146.7a6.21,6.21,0,0,1-6.2-6.2V190.93a1,1,0,0,1,1-1H157a1,1,0,0,1,1,1v11.92A6.21,6.21,0,0,1,151.84,209.05Zm-9.34-17.12v10.92a4.21,4.21,0,0,0,4.2,4.2h5.14a4.21,4.21,0,0,0,4.2-4.2V191.93Z" fill="#093f68"/><path d="M141.5,203.92h-2.35a5.68,5.68,0,0,1,0-11.36h2.35a1,1,0,0,1,1,1v9.36A1,1,0,0,1,141.5,203.92Zm-2.35-9.36a3.68,3.68,0,0,0,0,7.36h1.35v-7.36Z" fill="#093f68"/><path d="M270.23,196s-6.18-12.59-5.32-21.1a15.75,15.75,0,0,1,7.36,8.88C275.93,194,275.08,196,275.08,196Z" fill="#70cc40"/><path d="M275.08,197h-4.85a1,1,0,0,1-.9-.56c-.26-.52-6.29-12.95-5.42-21.64a1,1,0,0,1,.5-.77,1,1,0,0,1,.91,0,16.62,16.62,0,0,1,7.89,9.45c3.6,10,3,12.54,2.8,12.95A1,1,0,0,1,275.08,197Zm-4.22-2h3.32c0-1.17-.44-4.2-2.85-10.89a15.78,15.78,0,0,0-5.5-7.48C265.84,183.66,269.79,192.71,270.86,195Z" fill="#093f68"/><path d="M273.16,195.42s-4.63-17.95,2-30c0,0,3.84,4.39,4.76,15a26.89,26.89,0,0,1-2.77,14.69Z" fill="#70cc40"/><path d="M273.16,196.42a1,1,0,0,1-1-.75c-.2-.74-4.66-18.48,2.12-30.71a1,1,0,0,1,.77-.51,1,1,0,0,1,.86.34c.16.19,4.06,4.76,5,15.6A27.61,27.61,0,0,1,278,195.66a1,1,0,0,1-.8.5l-4,.26Zm2.16-29c-4.6,10-2.11,23.54-1.37,27l2.6-.17A26.68,26.68,0,0,0,279,180.56C278.35,173.59,276.45,169.38,275.32,167.42Z" fill="#093f68"/><path d="M275.17,194.86s1.43-12,11.12-19.81c0,0,2.86,8.93-5.15,20.87Z" fill="#70cc40"/><path d="M281.14,196.92H281l-6-1.06a1,1,0,0,1-.82-1.11c.06-.5,1.6-12.48,11.5-20.47a1,1,0,0,1,.91-.18,1,1,0,0,1,.67.66c.12.38,2.91,9.53-5.27,21.73A1,1,0,0,1,281.14,196.92Zm-4.82-2.87,4.35.77c5.34-8.25,5.33-15,5-17.88A32.41,32.41,0,0,0,276.32,194.05Z" fill="#093f68"/><polygon points="281.8 208.32 269.61 208.32 267.81 193.49 283.61 193.49 281.8 208.32" fill="#f56132"/><path d="M281.8,209.32H269.61a1,1,0,0,1-1-.88l-1.81-14.83a1,1,0,0,1,.25-.79,1,1,0,0,1,.75-.33h15.8a1,1,0,0,1,.75.33,1,1,0,0,1,.24.79l-1.8,14.83A1,1,0,0,1,281.8,209.32Zm-11.3-2h10.42l1.56-12.83H268.94Z" fill="#093f68"/></g></svg>